<svg preserveAspectRatio="none" width="100%" height="100%" overflow="visible" style="display: block;" viewBox="0 0 26 44" fill="none" xmlns="http://www.w3.org/2000/svg">
<path id="Vector" d="M14.0786 14.0956C9.80617 14.0956 7.07093 16.7068 5.66941 20.011V0L0 1.30316V39.0605C0.632948 39.6804 4.77876 43.5996 12.4872 43.5996C21.2173 43.5996 25.9283 37.0643 25.9283 28.7427C25.9283 20.421 21.8503 14.0956 14.0831 14.0956H14.0786ZM12.2928 38.2357C8.27806 38.2357 6.37017 36.7861 5.66941 36.3078V31.2172C5.66941 23.9986 8.47246 19.5962 13.1879 19.5962C17.9034 19.5962 20.1323 23.4471 20.1323 28.6694C20.1323 33.8918 17.4558 38.2308 12.2973 38.2308L12.2928 38.2357Z" fill="var(--fill-0, #3A3B47)"/>
</svg>
