<svg preserveAspectRatio="none" width="100%" height="100%" overflow="visible" style="display: block;" viewBox="0 0 27 15" fill="none" xmlns="http://www.w3.org/2000/svg">
<path id="Vector" d="M13.084 14.3835C9.66159 14.3835 6.41548 12.9096 3.93342 10.2251C1.41971 7.50658 -0.0134678 3.78745 9.54034e-05 0H5.66498C5.65594 2.17193 6.48329 4.3341 7.93907 5.90569C9.34964 7.43337 11.1761 8.27285 13.084 8.27285C13.0931 8.27285 13.0976 8.27285 13.1066 8.27285C15.1366 8.26797 17.0354 7.38944 18.4505 5.81296C19.834 4.26577 20.5619 2.14264 20.4986 0.00488178H26.1589C26.272 3.80698 24.9789 7.31623 22.524 10.0641C20.0736 12.8022 16.6466 14.3787 13.1247 14.3933C13.1112 14.3933 13.0976 14.3933 13.084 14.3933V14.3835Z" fill="var(--fill-0, #F87315)"/>
</svg>
