<svg preserveAspectRatio="none" width="100%" height="100%" overflow="visible" style="display: block;" viewBox="0 0 325 413" fill="none" xmlns="http://www.w3.org/2000/svg">
<path id="Subtract" d="M305 0C316.046 0 325 8.95431 325 20V393C325 404.046 316.046 413 305 413H210.128C202.784 413 196.302 408.659 191.071 403.505C183.85 396.39 173.938 392 163 392C152.062 392 142.15 396.39 134.929 403.505C129.698 408.659 123.216 413 115.872 413H20C8.95431 413 2.5772e-07 404.046 0 393V20C2.5772e-07 8.95431 8.95431 1.00665e-08 20 0H305Z" fill="var(--fill-0, #3A3B47)"/>
</svg>
