<svg preserveAspectRatio="none" width="100%" height="100%" overflow="visible" style="display: block;" viewBox="0 0 25 30" fill="none" xmlns="http://www.w3.org/2000/svg">
<path id="Vector" d="M24.7211 13.2707C24.7211 4.88074 19.4315 0 12.7449 0C5.47952 0 0 5.91545 0 14.857C0 23.7985 5.22634 29.7188 14.0198 29.7188C17.6502 29.7188 20.39 28.8891 23.826 26.2779L20.8963 21.607C19.7525 22.6369 17.7135 24.3549 14.0198 24.3549C9.43092 24.3549 5.73722 21.607 5.73722 16.1748H24.5946C24.5946 16.1748 24.7166 14.5934 24.7166 13.2854L24.7211 13.2707ZM6.05369 11.2745C7.07545 7.15516 9.75192 5.08573 12.876 5.08573C16.2487 5.08573 19.0517 7.15028 19.4315 11.2745H6.05369Z" fill="var(--fill-0, #3A3B47)"/>
</svg>
