<svg preserveAspectRatio="none" width="100%" height="100%" overflow="visible" style="display: block;" viewBox="0 0 85 33" fill="none" xmlns="http://www.w3.org/2000/svg">
<g id="logos:elo" clip-path="url(#clip0_0_6)">
<path id="Vector" d="M13.2505 7.26068C14.2302 6.93126 15.2564 6.76415 16.2891 6.76584C20.9239 6.76584 24.7936 10.0876 25.6799 14.5029L32.2502 13.1506C30.7422 5.64703 24.1705 5.84607e-06 16.2891 5.84607e-06C14.5339 -0.00148878 12.79 0.283617 11.125 0.84427L13.2505 7.26068Z" fill="var(--fill-0, #FFCC00)"/>
<path id="Vector_2" d="M5.49694 28.7463L9.94002 23.6777C7.9568 21.9047 6.70537 19.3173 6.70537 16.4346C6.70537 13.554 7.95497 10.9678 9.93703 9.19703L5.49362 4.12793C2.12533 7.1388 0 11.5368 0 16.4346C0 21.3353 2.12616 25.7347 5.49694 28.7463Z" fill="var(--fill-0, #00A0DE)"/>
<path id="Vector_3" d="M25.6782 18.374C24.788 22.7871 20.9225 26.1026 16.289 26.1026C15.2257 26.1026 14.2019 25.9295 13.2476 25.6059L11.1191 32.025C12.7426 32.5717 14.481 32.8679 16.289 32.8679C24.1628 32.8679 30.7339 27.2303 32.2475 19.7336L25.6782 18.374Z" fill="var(--fill-0, #EC3413)"/>
<path id="Vector_4" d="M37.9971 23.8913C37.7818 23.5395 37.4891 22.9767 37.3131 22.5626C36.2727 20.1253 36.2229 17.6031 37.1016 15.1818C38.0677 12.5264 39.9131 10.4935 42.2976 9.45843C45.2953 8.15668 48.6108 8.41331 51.4839 10.1335C53.3091 11.19 54.603 12.8212 55.5855 15.1276L55.6766 15.3519L55.8466 15.7974C55.874 15.8695 55.901 15.939 55.9278 16.0062L37.9971 23.8913ZM43.9845 13.371C41.8557 14.2942 40.7583 16.3092 40.9837 18.6718L50.0017 14.7557C48.451 12.9166 46.4325 12.3071 43.9845 13.371ZM54.6118 24.2433L51.1261 21.8917L51.1212 21.8969L50.9344 21.7699C50.3965 22.6511 49.5566 23.3647 48.4973 23.8282C46.4815 24.7126 44.6135 24.4853 43.2721 23.2982L43.1488 23.4874C43.1474 23.4853 43.1471 23.4836 43.1448 23.4836L40.8571 26.9372C41.4262 27.3362 42.0357 27.6731 42.6753 27.9423C45.2025 29.0015 47.7882 28.9524 50.3356 27.8346C52.1782 27.0288 53.6238 25.8003 54.6118 24.2431M62.1951 4.37207V23.5724L65.1535 24.7822L63.4724 28.74L60.2069 27.3679C59.4737 27.0478 58.975 26.5575 58.5972 26.0043C58.2361 25.4405 57.966 24.6666 57.966 23.6246V4.37224L62.1951 4.37207ZM69.8592 18.681C69.8608 17.0461 70.5764 15.5798 71.7086 14.5833L68.6733 11.1684C66.6147 13.0043 65.3182 15.6872 65.3158 18.6763C65.3125 21.6664 66.6071 24.352 68.6635 26.1928L71.6953 22.7745C70.5686 21.7741 69.8578 20.3122 69.8592 18.681ZM75.252 24.1307C74.6544 24.129 74.0788 24.0293 73.5421 23.8491L72.0926 28.1977C73.1094 28.5417 74.1747 28.7174 75.2472 28.718C80.0532 28.7227 84.0661 25.282 84.996 20.7081L80.5406 19.7901C80.0339 22.2693 77.8583 24.1324 75.252 24.1307ZM75.2653 8.65436C74.1942 8.65233 73.1299 8.8252 72.1135 9.16628L73.5504 13.5189C74.1022 13.3346 74.6797 13.2406 75.261 13.2405C77.8734 13.243 80.0505 15.1172 80.5453 17.6034L85.0011 16.6916C84.0841 12.111 80.075 8.65755 75.2651 8.65453" fill="var(--fill-0, black)"/>
</g>
<defs>
<clipPath id="clip0_0_6">
<rect width="85" height="33" fill="white"/>
</clipPath>
</defs>
</svg>
