<svg preserveAspectRatio="none" width="100%" height="100%" overflow="visible" style="display: block;" viewBox="0 0 26 44" fill="none" xmlns="http://www.w3.org/2000/svg">
<path id="Vector" d="M21.6604 2.33787C19.7525 2.33787 18.2199 3.57758 18.2199 5.70558C18.2199 7.83358 19.7525 9.21483 21.6604 9.21483C23.5683 9.21483 25.1642 7.91167 25.1642 5.77879C25.1642 3.64591 23.6361 2.33787 21.6604 2.33787ZM18.794 14.5153V43.2629H24.5946V14.5153H18.794ZM12.8082 5.22727C13.319 5.22727 14.1464 5.2956 15.2902 5.63725L16.0543 0.478312C14.4674 0.13178 13.0613 0 12.1074 0C7.90281 0 4.58887 1.09817 4.58887 9.21483V14.5104H0L1.27494 19.601H4.64765V43.258H10.3849V19.601H16.0498V14.5104H10.3849V10.5229C10.3849 6.7403 10.7646 5.22727 12.8036 5.22727H12.8082Z" fill="var(--fill-0, #3A3B47)"/>
</svg>
