<svg preserveAspectRatio="none" width="100%" height="100%" overflow="visible" style="display: block;" viewBox="0 0 48 38" fill="none" xmlns="http://www.w3.org/2000/svg">
<g id="logos:mastercard" clip-path="url(#clip0_0_19)">
<path id="Vector" d="M8.67495 36.9088V34.4537C8.67495 33.5124 8.10196 32.8988 7.11983 32.8988C6.62886 32.8988 6.09688 33.0625 5.72856 33.5945C5.44225 33.1443 5.03311 32.8988 4.4193 32.8988C4.00997 32.8988 3.60102 33.0215 3.27352 33.4716V32.9806H2.41422V36.9088H3.27352V34.7401C3.27352 34.0446 3.64184 33.7171 4.21482 33.7171C4.78744 33.7171 5.07412 34.0854 5.07412 34.7401V36.9088H5.93341V34.7401C5.93341 34.0446 6.34237 33.7171 6.87435 33.7171C7.44733 33.7171 7.73364 34.0854 7.73364 34.7401V36.9088H8.67495ZM21.4005 32.9806H20.0094V31.794H19.1501V32.9806H18.3727V33.7579H19.1499V35.5585C19.1499 36.4588 19.5183 36.9906 20.5004 36.9906C20.8687 36.9906 21.2777 36.868 21.5643 36.7043L21.3187 35.9677C21.0732 36.1313 20.7869 36.1723 20.5822 36.1723C20.1731 36.1723 20.0094 35.9268 20.0094 35.5175V33.7579H21.4005V32.9806ZM28.6842 32.8986C28.1932 32.8986 27.8659 33.1443 27.6612 33.4716V32.9806H26.8019V36.9088H27.6612V34.6992C27.6612 34.0446 27.9475 33.6763 28.4795 33.6763C28.6432 33.6763 28.8478 33.7173 29.0115 33.7581L29.257 32.9398C29.0933 32.8988 28.8478 32.8988 28.6842 32.8988M17.677 33.3081C17.2677 33.0217 16.6949 32.899 16.0811 32.899C15.0991 32.899 14.4445 33.39 14.4445 34.1674C14.4445 34.8223 14.9355 35.1904 15.7948 35.3132L16.2039 35.3542C16.6541 35.4359 16.8996 35.5587 16.8996 35.7634C16.8996 36.0497 16.5722 36.2543 15.9993 36.2543C15.4263 36.2543 14.9763 36.0497 14.6898 35.8452L14.2807 36.4998C14.7308 36.8271 15.3446 36.9908 15.9582 36.9908C17.104 36.9908 17.7589 36.459 17.7589 35.7224C17.7589 35.0267 17.2269 34.6584 16.4084 34.5358L15.9993 34.4948C15.6309 34.4537 15.3446 34.3721 15.3446 34.1266C15.3446 33.8401 15.6309 33.6765 16.0811 33.6765C16.5722 33.6765 17.0632 33.8809 17.3087 34.0038L17.677 33.3081ZM40.5098 32.899C40.0186 32.899 39.6913 33.1445 39.4867 33.4718V32.9808H38.6274V36.909H39.4867V34.6994C39.4867 34.0448 39.7732 33.6765 40.305 33.6765C40.4688 33.6765 40.6735 33.7175 40.8371 33.7583L41.0826 32.94C40.9189 32.899 40.6735 32.899 40.5098 32.899ZM29.5435 34.9449C29.5435 36.1315 30.3618 36.9908 31.6304 36.9908C32.2032 36.9908 32.6123 36.8682 33.0215 36.5408L32.6123 35.8452C32.285 36.0907 31.9577 36.2133 31.5894 36.2133C30.8937 36.2133 30.4028 35.7224 30.4028 34.9449C30.4028 34.2084 30.8937 33.7173 31.5894 33.6765C31.9577 33.6765 32.285 33.7991 32.6123 34.0448L33.0215 33.3492C32.6123 33.0217 32.2032 32.899 31.6304 32.899C30.3618 32.899 29.5435 33.7583 29.5435 34.9449ZM37.4818 34.9449V32.9808H36.6225V33.4718C36.336 33.1037 35.9268 32.899 35.3949 32.899C34.2901 32.899 33.4308 33.7583 33.4308 34.9449C33.4308 36.1315 34.2901 36.9908 35.3949 36.9908C35.9677 36.9908 36.377 36.7863 36.6225 36.418V36.909H37.4818V34.9449ZM34.3309 34.9449C34.3309 34.2493 34.7811 33.6765 35.5175 33.6765C36.2132 33.6765 36.7043 34.2084 36.7043 34.9449C36.7043 35.6405 36.2132 36.2133 35.5175 36.2133C34.7811 36.1723 34.3309 35.6405 34.3309 34.9449ZM24.0604 32.899C22.9146 32.899 22.0961 33.7173 22.0961 34.9449C22.0961 36.1725 22.9144 36.9908 24.1012 36.9908C24.674 36.9908 25.247 36.8271 25.6972 36.459L25.2878 35.8452C24.9605 36.0907 24.5514 36.2543 24.1422 36.2543C23.6102 36.2543 23.0783 36.0089 22.9554 35.313H25.8608V34.9859C25.9018 33.7173 25.1654 32.899 24.0604 32.899ZM24.0602 33.6355C24.592 33.6355 24.9605 33.963 25.0422 34.5768H22.9963C23.0781 34.0448 23.4464 33.6355 24.0602 33.6355ZM45.3789 34.9449V31.4259H44.5196V33.4718C44.2331 33.1037 43.824 32.899 43.292 32.899C42.1872 32.899 41.3279 33.7583 41.3279 34.9449C41.3279 36.1315 42.1872 36.9908 43.292 36.9908C43.865 36.9908 44.2741 36.7863 44.5196 36.418V36.909H45.3789V34.9449ZM42.2282 34.9449C42.2282 34.2493 42.6782 33.6765 43.4148 33.6765C44.1104 33.6765 44.6014 34.2084 44.6014 34.9449C44.6014 35.6405 44.1104 36.2133 43.4148 36.2133C42.6782 36.1723 42.2282 35.6405 42.2282 34.9449ZM13.503 34.9449V32.9808H12.6437V33.4718C12.3572 33.1037 11.9481 32.899 11.4161 32.899C10.3113 32.899 9.45204 33.7583 9.45204 34.9449C9.45204 36.1315 10.3113 36.9908 11.4161 36.9908C11.9891 36.9908 12.3982 36.7863 12.6437 36.418V36.909H13.503V34.9449ZM10.3113 34.9449C10.3113 34.2493 10.7615 33.6765 11.4979 33.6765C12.1936 33.6765 12.6847 34.2084 12.6847 34.9449C12.6847 35.6405 12.1936 36.2133 11.4979 36.2133C10.7615 36.1723 10.3113 35.6405 10.3113 34.9449Z" fill="var(--fill-0, black)"/>
<path id="Vector_2" d="M17.3906 3.15039H30.28V26.3105H17.3906V3.15039Z" fill="var(--fill-0, #FF5F00)"/>
<path id="Vector_3" d="M18.209 14.7308C18.209 10.0252 20.4186 5.8514 23.8147 3.15068C21.3189 1.18661 18.1682 0 14.731 0C6.58785 0 0 6.58785 0 14.7308C0 22.8738 6.58785 29.4616 14.7308 29.4616C18.168 29.4616 21.3187 28.275 23.8147 26.3108C20.4186 23.6511 18.209 19.4364 18.209 14.7308Z" fill="var(--fill-0, #EB001B)"/>
<path id="Vector_4" d="M47.6702 14.7308C47.6702 22.8736 41.0823 29.4616 32.9394 29.4616C29.5022 29.4616 26.3515 28.275 23.8555 26.3108C27.2926 23.6102 29.4614 19.4364 29.4614 14.7308C29.4614 10.0252 27.2516 5.8514 23.8555 3.15068C26.3513 1.18661 29.5022 0 32.9394 0C41.0823 0 47.6702 6.62886 47.6702 14.7308Z" fill="var(--fill-0, #F79E1B)"/>
</g>
<defs>
<clipPath id="clip0_0_19">
<rect width="47.7178" height="37.0931" fill="white"/>
</clipPath>
</defs>
</svg>
