<svg preserveAspectRatio="none" width="100%" height="100%" overflow="visible" style="display: block;" viewBox="0 0 22 22" fill="none" xmlns="http://www.w3.org/2000/svg">
<g id="ant-design:tik-tok-outlined">
<path id="Vector" fill-rule="evenodd" clip-rule="evenodd" d="M11.387 2.42058C12.3252 2.40625 13.2561 2.4134 14.187 2.40625C14.2443 3.50195 14.6382 4.61912 15.4402 5.39254C16.2423 6.18746 17.3737 6.55269 18.4766 6.67442V9.56046C17.4454 9.52465 16.407 9.3098 15.4689 8.86581C15.0607 8.6796 14.6812 8.44327 14.3088 8.19979C14.3016 10.2909 14.3159 12.382 14.2945 14.466C14.2372 15.4686 13.9077 16.464 13.3277 17.2876C12.3896 18.6626 10.764 19.5577 9.09545 19.5864C8.07142 19.6437 7.04737 19.3644 6.17371 18.8488C4.72716 17.9966 3.71027 16.4354 3.5599 14.7596C3.54557 14.4015 3.53841 14.0435 3.55272 13.6926C3.68163 12.3319 4.35478 11.0285 5.40031 10.1405C6.58904 9.10929 8.25043 8.61515 9.80439 8.90878C9.81872 9.96866 9.77578 11.0285 9.77578 12.0884C9.06679 11.8592 8.23612 11.9237 7.6131 12.3534C7.16195 12.647 6.81822 13.0982 6.63919 13.6066C6.4888 13.9719 6.53177 14.3729 6.53892 14.7596C6.71079 15.9341 7.84225 16.9223 9.04533 16.8149C9.84739 16.8078 10.6136 16.3423 11.029 15.6619C11.165 15.4256 11.3154 15.1821 11.3226 14.9028C11.3942 13.6209 11.3655 12.3462 11.3727 11.0643C11.3799 8.17831 11.3655 5.29944 11.387 2.42058Z" fill="var(--fill-0, #F87315)"/>
</g>
</svg>
