<svg preserveAspectRatio="none" width="100%" height="100%" overflow="visible" style="display: block;" viewBox="0 0 71 23" fill="none" xmlns="http://www.w3.org/2000/svg">
<g id="logos:visa" clip-path="url(#clip0_0_4)">
<path id="Vector" d="M36.7195 7.32342C36.679 10.5146 39.5659 12.2953 41.7405 13.3541C43.9748 14.4404 44.7253 15.137 44.7164 16.1086C44.6998 17.5953 42.9342 18.2515 41.2821 18.277C38.3996 18.3216 36.7236 17.4994 35.3913 16.8776L34.3529 21.7322C35.6897 22.3477 38.165 22.8844 40.7318 22.908C46.7571 22.908 50.699 19.9363 50.7203 15.3288C50.7439 9.48126 42.6252 9.1576 42.6807 6.54391C42.6998 5.75138 43.4567 4.90565 45.1152 4.69061C45.9362 4.58199 48.2023 4.49885 50.7717 5.681L51.7801 0.984012C50.3984 0.481338 48.6225 -5.20879e-07 46.4115 -5.20879e-07C40.7404 -5.20879e-07 36.7517 3.01217 36.7195 7.32342ZM61.4699 0.404578C60.3697 0.404578 59.4425 1.04581 59.0287 2.02982L50.4219 22.563H56.4428L57.6409 19.2546H64.9983L65.6933 22.563H71L66.3692 0.404578H61.4699ZM62.3122 6.3904L64.0498 14.7111H59.2911L62.3122 6.3904ZM29.4195 0.404854L24.6736 22.5627H30.411L35.1547 0.404301L29.4195 0.404854ZM20.932 0.404854L14.9602 15.4865L12.5445 2.66273C12.2611 1.23119 11.1417 0.404578 9.89868 0.404578H0.13673L0 1.04802C2.00409 1.48253 4.28108 2.18334 5.66059 2.93319C6.50482 3.39125 6.74555 3.79167 7.0229 4.88016L11.5982 22.563H17.6613L26.9567 0.404578L20.932 0.404854Z" fill="url(#paint0_linear_0_4)"/>
</g>
<defs>
<linearGradient id="paint0_linear_0_4" x1="3264.15" y1="68.8614" x2="3330.41" y2="-2283.83" gradientUnits="userSpaceOnUse">
<stop stop-color="#222357"/>
<stop offset="1" stop-color="#254AA5"/>
</linearGradient>
<clipPath id="clip0_0_4">
<rect width="71" height="23" fill="white"/>
</clipPath>
</defs>
</svg>
